<?xml version="1.0" encoding="UTF-8"?>
<svg version="1.1" xmlns="http://www.w3.org/2000/svg" width="500" height="500">
<path d="M0 0 C2.69270562 2.63839485 3.88495816 4.29964814 4.50024599 8.04539824 C4.50035333 9.19210131 4.50046066 10.33880439 4.50057125 11.52025604 C4.50608542 12.16442091 4.51159958 12.80858577 4.51728085 13.47227079 C4.53089192 15.63388075 4.51597173 17.7943439 4.50120544 19.95593262 C4.50509777 21.51998892 4.51073766 23.08404168 4.51797634 24.64808607 C4.53275898 28.9484583 4.5225332 33.2484654 4.50823963 37.54882598 C4.49714963 42.18556903 4.50906589 46.82226004 4.51808167 51.45899963 C4.5320296 60.54333133 4.52444649 69.62752422 4.50940608 78.71184933 C4.49256375 89.28619708 4.495754 99.86051007 4.49950016 110.43486708 C4.50538159 129.29954235 4.49119608 148.16415091 4.46655273 167.02880859 C4.44263114 185.34296163 4.43554812 203.65702555 4.44604492 221.97119141 C4.45744892 241.90394792 4.4593906 261.83666318 4.44494683 281.76941919 C4.44342095 283.89405473 4.4419006 286.01869026 4.44038582 288.14332581 C4.439628 289.1887451 4.43887019 290.23416439 4.43808941 291.31126305 C4.43334258 298.68582201 4.43520085 306.06036258 4.43945122 313.43492126 C4.44437305 322.41945206 4.43841511 331.40389851 4.41855692 340.38840997 C4.40867129 344.97430811 4.40359348 349.5600777 4.41144943 354.14598274 C4.41848996 358.34166843 4.41173993 362.53709435 4.3938458 366.73274571 C4.38979071 368.25285863 4.39081891 369.77299511 4.39736467 371.29309934 C4.40548796 373.35562677 4.39523674 375.41727321 4.38031673 377.47974396 C4.37877304 379.19979857 4.37877304 379.19979857 4.37719816 380.95460176 C3.95450391 384.3673234 3.03916388 386.25563163 1 389 C-2.19233485 390.59616743 -5.53461497 390.51466114 -9 390 C-11.43119623 388.12984906 -12.64069173 386.71861655 -14 384 C-14.09871542 381.95151822 -14.13102543 379.89974388 -14.13422108 377.84888744 C-14.13657331 377.20818411 -14.13892554 376.56748078 -14.14134905 375.90736219 C-14.14805681 373.73983505 -14.14758029 371.57236761 -14.14717102 369.40483093 C-14.15046854 367.84336801 -14.15419386 366.28190595 -14.1583125 364.72044498 C-14.16835329 360.41341898 -14.17205262 356.10640693 -14.17470181 351.79937088 C-14.17859867 347.16054255 -14.18817738 342.52172532 -14.19691467 337.88290405 C-14.21669585 326.67264419 -14.22674706 315.46238341 -14.23564246 304.25211045 C-14.24002237 298.97739221 -14.24538992 293.70267498 -14.25063133 288.42795753 C-14.26764472 270.90144274 -14.28214016 253.37492858 -14.28938007 235.84840679 C-14.29129007 231.29810777 -14.29321039 226.74780876 -14.29516602 222.19750977 C-14.29589163 220.5010091 -14.29589163 220.5010091 -14.2966319 218.77023569 C-14.30493691 200.4378737 -14.3302813 182.10557686 -14.36274669 163.77324333 C-14.39578191 144.96635817 -14.4138256 126.15950615 -14.41702431 107.35259181 C-14.41919262 96.7872783 -14.42798805 86.22205982 -14.45348549 75.65677452 C-14.47514416 66.66119456 -14.48326678 57.6657327 -14.47351871 48.67012962 C-14.46896003 44.07812474 -14.47095083 39.48636377 -14.49028015 34.89439201 C-14.50781315 30.69299347 -14.50699503 26.49201856 -14.49138286 22.29061613 C-14.4889917 20.76838465 -14.49340787 19.24612459 -14.50521151 17.723937 C-14.52024065 15.65831758 -14.51072304 13.59421678 -14.49498463 11.52863598 C-14.49596144 10.38030668 -14.49693824 9.23197739 -14.49794465 8.04885024 C-13.88766943 4.31221456 -12.65701113 2.65441985 -10 0 C-6.16652698 -1.27782434 -3.91272241 -0.96101954 0 0 Z " fill="#F5E8B3" transform="translate(229,62)"/>
<path d="M0 0 C2.69990662 1.79993774 4.5418865 3.083773 6 6 C6.09496954 7.33973624 6.12914908 8.68405403 6.13142776 10.02715015 C6.13526891 10.87451388 6.13911005 11.72187761 6.1430676 12.59491903 C6.14220112 13.53118318 6.14133463 14.46744733 6.14044189 15.43208313 C6.14341302 16.42256737 6.14638414 17.41305162 6.1494453 18.43355054 C6.15816137 21.773824 6.15964299 25.11406175 6.16113281 28.4543457 C6.16575892 30.84058713 6.1707833 33.22682781 6.17617798 35.61306763 C6.18932378 42.11101026 6.1957876 48.60894603 6.20018864 55.1068995 C6.20294956 59.16303085 6.20718665 63.2191598 6.21169281 67.27528954 C6.22388701 78.50185783 6.23418585 89.7284242 6.2375679 100.95499897 C6.23778747 101.67380045 6.23800703 102.39260193 6.23823325 103.13318528 C6.23845153 103.85372414 6.23866981 104.57426301 6.2388947 105.31663638 C6.23933817 106.77676475 6.23978473 108.23689312 6.24023438 109.69702148 C6.2404558 110.42129832 6.24067723 111.14557515 6.24090537 111.89179977 C6.24485358 123.62830226 6.26230757 135.36474267 6.2855939 147.10122118 C6.30929955 159.1461133 6.3217694 171.19097426 6.32293582 183.23589009 C6.32385305 190.00058476 6.32961741 196.76519857 6.34775543 203.52987099 C6.36418824 209.89179324 6.36641491 216.25356173 6.35761642 222.61549759 C6.35684348 224.95322391 6.3612224 227.29095833 6.37107468 229.62866402 C6.38371787 232.81494974 6.37795873 236.00068462 6.36749268 239.18696594 C6.37554908 240.11653793 6.38360548 241.04610992 6.39190602 242.00385076 C6.35489718 246.80661661 6.18254364 250.12781227 3 254 C-0.19233485 255.59616743 -3.53461497 255.51466114 -7 255 C-9.43119623 253.12984906 -10.64069173 251.71861655 -12 249 C-12.09582347 247.6602938 -12.13095137 246.31597462 -12.13422108 244.97284985 C-12.13867892 244.12548612 -12.14313676 243.27812239 -12.14772969 242.40508097 C-12.14754533 241.46881682 -12.14736097 240.53255267 -12.14717102 239.56791687 C-12.15084771 238.57743263 -12.1545244 237.58694838 -12.1583125 236.56644946 C-12.16938209 233.22617926 -12.1731987 229.88594013 -12.17700195 226.5456543 C-12.18326406 224.15941264 -12.18991064 221.77317197 -12.19691467 219.38693237 C-12.2161657 212.21082151 -12.22674598 205.03471004 -12.23564246 197.85858056 C-12.24002404 194.48062292 -12.24539117 191.10266686 -12.25063133 187.72471046 C-12.26764399 176.49814396 -12.28213883 165.27157844 -12.28938007 154.04500103 C-12.29129002 151.13099351 -12.29321034 148.216986 -12.29516602 145.30297852 C-12.29564976 144.57870168 -12.2961335 143.85442485 -12.2966319 143.10820023 C-12.30493471 131.37167765 -12.33027565 119.63525691 -12.36274669 107.89877882 C-12.39579982 95.85388712 -12.41382723 83.80904721 -12.41702431 71.76410991 C-12.419191 64.99938539 -12.42796259 58.23480939 -12.45348549 51.47012901 C-12.47669226 45.10817465 -12.48102918 38.74648806 -12.47072411 32.38450241 C-12.47022685 30.04677123 -12.47660266 27.7090272 -12.49028015 25.37133598 C-12.50788344 22.18491079 -12.50094951 18.99945865 -12.48774719 15.81303406 C-12.49871644 14.88346207 -12.50968568 13.95389008 -12.52098733 12.99614924 C-12.47883562 8.79523458 -12.36527822 6.5848362 -10.0945158 2.94918537 C-6.73306068 -0.17903125 -4.55549037 -0.4466167 0 0 Z " fill="#F5E8B3" transform="translate(261,129)"/>
<path d="M0 0 C3.15199209 2.90801236 3.94691113 4.59294581 4.50615788 8.88092041 C4.52939184 10.43378875 4.5306782 11.98707949 4.5146637 13.54003906 C4.52508199 14.8274745 4.52508199 14.8274745 4.53571075 16.14091873 C4.55400299 19.01608537 4.54371032 21.89042896 4.53344727 24.765625 C4.54050456 26.82719542 4.54924878 28.88876065 4.55955505 30.95031738 C4.58207866 36.54943674 4.5791025 42.14827382 4.57023358 47.74742126 C4.56512817 52.41963755 4.57241255 57.09180058 4.57970566 61.76401138 C4.59671376 72.78412774 4.59312916 83.80410565 4.57641602 94.82421875 C4.55948781 106.19931097 4.57533699 117.57401964 4.6076389 128.94906998 C4.63431255 138.71140511 4.64161697 148.47362069 4.63312382 158.23598862 C4.62818886 164.06842308 4.63044129 169.90062664 4.65091133 175.73303223 C4.66923374 181.21609093 4.66335157 186.6985966 4.63871193 192.18162537 C4.63369341 194.19522321 4.63722066 196.20886294 4.64986038 198.22242737 C4.6657386 200.96891193 4.65089004 203.71356365 4.62818909 206.45996094 C4.64594268 207.65864744 4.64594268 207.65864744 4.66405493 208.88154984 C4.59553703 212.95435784 4.17850368 214.77803801 1.5918417 217.9944458 C-0.95386031 219.96429734 -1.91952701 220.66872374 -5.0625 220.5625 C-9 220 -9 220 -11.4375 218.125 C-14.39980671 214.09626287 -14.14828183 210.70272135 -14.14717102 205.85868835 C-14.15084771 205.00704489 -14.1545244 204.15540143 -14.1583125 203.27795058 C-14.16937702 200.40754374 -14.17319784 197.53717306 -14.17700195 194.66674805 C-14.18326446 192.61547734 -14.18991107 190.56420777 -14.19691467 188.51293945 C-14.21434297 182.92819348 -14.22488119 177.34345608 -14.2331202 171.75868964 C-14.23826594 168.27209113 -14.24434183 164.78549531 -14.25063133 161.2988987 C-14.26968757 150.39752664 -14.2839184 139.49616138 -14.2922433 128.59477586 C-14.30202162 115.99704369 -14.32835493 103.39948696 -14.36874419 90.80181664 C-14.3988673 81.07353936 -14.41370852 71.34531247 -14.41702431 61.61698943 C-14.41937894 55.8024031 -14.42839311 49.98800409 -14.45348549 44.17346764 C-14.47670494 38.70450452 -14.48102411 33.23585289 -14.47072411 27.76685333 C-14.47022716 25.75808236 -14.47659416 23.74929638 -14.49028015 21.74057198 C-14.5079048 19.00075897 -14.50093961 16.26207525 -14.48774719 13.52226257 C-14.49871644 12.72498283 -14.50968568 11.92770308 -14.52098733 11.10626334 C-14.47781411 7.39943056 -14.12920161 5.20822048 -12.1570158 2.02985859 C-8.23663621 -1.65941257 -5.02117868 -1.23327196 0 0 Z " fill="#F5E7B3" transform="translate(161,147)"/>
<path d="M0 0 C2.69990662 1.79993774 4.5418865 3.083773 6 6 C6.09899287 8.28404672 6.13072766 10.57108029 6.13371277 12.85726929 C6.13597833 13.57077754 6.13824388 14.28428579 6.14057809 15.0194155 C6.14693364 17.42230234 6.14608773 19.825133 6.14526367 22.22802734 C6.14825421 23.94594903 6.15165649 25.66387004 6.15544128 27.38179016 C6.16429657 32.05741461 6.16662005 36.73302076 6.16725707 41.40865278 C6.16820504 45.3078581 6.17188208 49.20705913 6.17542917 53.1062628 C6.18357966 62.30391698 6.18601287 71.50156137 6.18530273 80.69921875 C6.18470189 90.19565106 6.1952537 99.69202657 6.2110464 109.1884445 C6.22411077 117.33370557 6.22948709 125.47894806 6.22884732 133.62421954 C6.228592 138.49247457 6.23146226 143.36067917 6.24202538 148.2289238 C6.25168773 152.80728215 6.25179837 157.38554165 6.24450874 161.96390343 C6.24346055 163.64573625 6.24583963 165.32757517 6.2518692 167.00939751 C6.25955917 169.30263667 6.25496436 171.59553194 6.24723816 173.88876343 C6.24778293 175.1729888 6.24832769 176.45721416 6.24888897 177.78035545 C6.01190072 180.84605151 5.74021459 182.50478256 4 185 C0.30691783 187.46205478 -2.71316878 187.57042512 -7 187 C-10.23613354 185.25746655 -10.82395315 184.52814056 -12 181 C-12.09672549 178.67574348 -12.13067315 176.3487425 -12.13371277 174.0224762 C-12.13597833 173.30811352 -12.13824388 172.59375085 -12.14057809 171.85774082 C-12.14692106 169.45795998 -12.14608854 167.05823557 -12.14526367 164.65844727 C-12.14825496 162.94037808 -12.15165741 161.22230957 -12.15544128 159.50424194 C-12.16428809 154.83280881 -12.16661967 150.16139398 -12.16725707 145.48995328 C-12.16820566 141.59318311 -12.17188334 137.69641723 -12.17542917 133.7996487 C-12.18357613 124.60821087 -12.18601316 115.41678283 -12.18530273 106.2253418 C-12.1847017 96.7362731 -12.195258 87.24726122 -12.2110464 77.7582069 C-12.22411039 69.61717192 -12.22948712 61.47615552 -12.22884732 53.33511013 C-12.22859202 48.47022343 -12.23146096 43.60538722 -12.24202538 38.74051094 C-12.25168731 34.16624319 -12.25179867 29.59207438 -12.24450874 25.01780319 C-12.24346056 23.33758208 -12.24583959 21.65735486 -12.2518692 19.97714424 C-12.25955915 17.686148 -12.25496441 15.395496 -12.24723816 13.10450745 C-12.24778293 11.8215809 -12.24832769 10.53865435 -12.24888897 9.21685123 C-12.01373806 6.17756229 -11.67650444 4.50434959 -10 2 C-6.77706714 -0.3020949 -3.88003676 -0.47510654 0 0 Z " fill="#F5E8B3" transform="translate(295,163)"/>
<path d="M0 0 C4.00538252 0.64372219 5.65945826 1.72195826 8.5 4.5625 C9.89385839 7.35021678 9.63885286 9.64061764 9.65390015 12.76092529 C9.6582824 13.40360202 9.66266465 14.04627875 9.6671797 14.70843053 C9.68058251 16.871704 9.68674987 19.03493672 9.69287109 21.19824219 C9.70077094 22.74543442 9.70903981 24.2926248 9.71765137 25.83981323 C9.74388645 30.92964922 9.75918107 36.01949349 9.7734375 41.109375 C9.77879668 42.8607102 9.78417419 44.61204534 9.78956985 46.36338043 C9.81120129 53.64818483 9.82993816 60.932987 9.84119225 68.2178154 C9.85743202 78.66169863 9.89060729 89.10520984 9.94759309 99.54895282 C9.98628474 106.89000289 10.00582404 114.23095342 10.01111281 121.57210279 C10.01476753 125.95766896 10.02680108 130.34283849 10.05921555 134.72829437 C10.08928254 138.85538404 10.09561319 142.98183679 10.08383179 147.1090126 C10.08361093 148.62232207 10.09192624 150.13566096 10.10948563 151.64886856 C10.25057399 164.50928056 10.25057399 164.50928056 7.09243774 168.4619751 C3.5092292 171.36527289 3.5092292 171.36527289 0.5 171.25 C-0.139375 171.25386719 -0.77875 171.25773438 -1.4375 171.26171875 C-4.71468344 170.15070391 -6.29763628 168.18567945 -8.5 165.5625 C-9.1292057 162.46244812 -9.1292057 162.46244812 -9.13491821 158.9206543 C-9.14271817 158.26654162 -9.15051812 157.61242895 -9.15855443 156.93849468 C-9.1784454 154.75399068 -9.16272403 152.5712346 -9.14697266 150.38671875 C-9.15375018 148.81774887 -9.16265407 147.24878696 -9.17352295 145.67984009 C-9.19630731 141.42353925 -9.18748379 137.16784472 -9.17162752 132.91153336 C-9.15896395 128.45622378 -9.1707099 124.00096593 -9.17855835 119.5456543 C-9.1876536 112.06387008 -9.17567034 104.58233268 -9.15185547 97.10058594 C-9.12464433 88.45201303 -9.13345859 79.80402947 -9.1609875 71.15547085 C-9.18368118 63.72855047 -9.18687741 56.30180747 -9.17379415 48.87486362 C-9.16600103 44.43970136 -9.16495411 40.00481607 -9.18147659 35.56967163 C-9.195926 31.3997681 -9.18589175 27.23062399 -9.15700531 23.06080246 C-9.1503969 21.53098181 -9.1522881 20.00109719 -9.16331863 18.47130203 C-9.17699752 16.38145559 -9.1598367 14.29403758 -9.13491821 12.2043457 C-9.13303308 11.03555374 -9.13114796 9.86676178 -9.1292057 8.66255188 C-8.06139166 3.40150782 -5.22900401 0.84037564 0 0 Z " fill="#F4E8B2" transform="translate(393.5,162.4375)"/>
<path d="M0 0 C2.9107285 2.02002666 4.71244499 3.6276607 5.45822334 7.18684387 C5.64585215 9.96745015 5.66390437 12.70729662 5.63110352 15.49414062 C5.63825882 16.54997849 5.64541412 17.60581635 5.65278625 18.69364929 C5.66968644 22.18162379 5.6502615 25.66831548 5.62890625 29.15625 C5.62973482 31.5809337 5.63219374 34.00561735 5.63621521 36.43029785 C5.63907414 41.51115838 5.62436187 46.59157832 5.59692383 51.67236328 C5.56284167 58.18612502 5.56885879 64.69909881 5.5875864 71.21289825 C5.59815331 76.21948822 5.58922122 81.22589474 5.57420158 86.23246765 C5.56901709 88.63424637 5.56950479 91.03604423 5.57574654 93.43782043 C5.58119472 96.7942527 5.56083449 100.14955575 5.53344727 103.50585938 C5.53997314 104.49925827 5.54649902 105.49265717 5.55322266 106.51615906 C5.4933352 110.83101835 5.40060858 113.33146274 3.14634705 117.09338379 C0.34888662 119.57838891 -1.26602499 120 -5 120 C-10.33798662 118.04958181 -10.33798662 118.04958181 -12.1551609 115.16856289 C-13.08471376 112.78255371 -13.25643309 111.04494621 -13.26742554 108.49049377 C-13.28022049 107.14261276 -13.28022049 107.14261276 -13.29327393 105.76750183 C-13.29236755 104.78920914 -13.29146118 103.81091644 -13.29052734 102.80297852 C-13.29724457 101.76679382 -13.30396179 100.73060913 -13.31088257 99.6630249 C-13.32989344 96.23493669 -13.33378818 92.8070439 -13.3359375 89.37890625 C-13.34236267 86.99763406 -13.34909081 84.61636267 -13.35610962 82.23509216 C-13.36808969 77.2425656 -13.37178962 72.25010828 -13.37060547 67.25756836 C-13.3704021 60.85706651 -13.39771964 54.45700781 -13.43214989 48.05661106 C-13.45437412 43.1384222 -13.4584444 38.2203408 -13.45738602 33.30210686 C-13.45974813 30.94217334 -13.46860582 28.58223714 -13.48405075 26.22235298 C-13.50362192 22.92339028 -13.49790725 19.62539391 -13.48583984 16.32641602 C-13.49707886 15.35014755 -13.50831787 14.37387909 -13.51989746 13.36802673 C-13.47970068 9.04882717 -13.40706593 6.65863705 -11.09463501 2.917099 C-7.46851342 -0.40168162 -4.87681258 -0.49594704 0 0 Z " fill="#F5E8B2" transform="translate(92,197)"/>
<path d="M0 0 C4.02339163 0.64661651 5.68303517 1.66268326 8.5 4.5625 C9.6579304 8.03629121 9.64122491 10.76720317 9.66113281 14.43310547 C9.66609772 15.12776917 9.67106262 15.82243286 9.67617798 16.53814697 C9.69077829 18.83533724 9.69759784 21.13245846 9.703125 23.4296875 C9.70887799 25.02767946 9.71463571 26.6256714 9.72039795 28.22366333 C9.73090172 31.57440512 9.73674854 34.92512297 9.74023438 38.27587891 C9.74571933 42.56551716 9.7697498 46.85483804 9.79820633 51.14437675 C9.81684645 54.44553549 9.82203902 57.74661795 9.82357025 61.04782486 C9.82659397 62.62904725 9.83461304 64.21026839 9.84775543 65.79143906 C9.86484597 68.00557238 9.86292884 70.21893261 9.85644531 72.43310547 C9.86009094 73.69202606 9.86373657 74.95094666 9.86749268 76.24801636 C9.46950607 79.83753034 8.66642789 81.70418291 6.5 84.5625 C3.59053057 86.2924548 1.8250358 86.56913338 -1.5625 86.5 C-5.37471036 85.28333712 -6.36035767 83.91956308 -8.5 80.5625 C-9.0146637 77.14758301 -9.0146637 77.14758301 -9.03344727 73.18945312 C-9.04206284 72.46523666 -9.05067841 71.7410202 -9.05955505 70.99485779 C-9.08218159 68.61078737 -9.0754835 66.22789549 -9.06640625 63.84375 C-9.07164305 62.18135225 -9.07791973 60.51895748 -9.08518982 58.85656738 C-9.09558761 55.37640375 -9.09104128 51.89664917 -9.07641602 48.41650391 C-9.05922148 43.96067617 -9.08273379 39.50613715 -9.11790562 35.05045319 C-9.13988379 31.61883021 -9.13843736 28.18751549 -9.1301403 24.75584412 C-9.12932115 23.11322109 -9.13617787 21.47057535 -9.15091133 19.82801819 C-9.16836823 17.52972555 -9.15380988 15.23374713 -9.13110352 12.93554688 C-9.13014175 11.62936401 -9.12917999 10.32318115 -9.12818909 8.97741699 C-8.12320156 3.51417502 -5.45572921 0.87681362 0 0 Z " fill="#F5E8B3" transform="translate(427.5,213.4375)"/>
<path d="M0 0 C2.69990662 1.79993774 4.5418865 3.083773 6 6 C6.107566 8.28105593 6.14892585 10.56531886 6.16113281 12.84887695 C6.16609772 13.55314819 6.17106262 14.25741943 6.17617798 14.98303223 C6.19080911 17.31812511 6.19760368 19.65315002 6.203125 21.98828125 C6.20887634 23.6101227 6.21463408 25.23196413 6.22039795 26.85380554 C6.2309111 30.2576021 6.23675148 33.66137503 6.24023438 37.06518555 C6.24571517 41.4232318 6.26973282 45.780965 6.29820633 50.13891315 C6.3168475 53.4906861 6.32203913 56.84238393 6.32357025 60.19420433 C6.32659475 61.80054623 6.33461646 63.40688686 6.34775543 65.01317787 C6.36484483 67.26333905 6.36292884 69.51273939 6.35644531 71.76293945 C6.36009094 73.04264114 6.36373657 74.32234283 6.36749268 75.64082336 C5.97187111 79.25712052 5.18608482 81.12481607 3 84 C0.09053057 85.7299548 -1.6749642 86.00663338 -5.0625 85.9375 C-8.8752339 84.72067003 -9.86131709 83.35850531 -12 80 C-12.50793457 76.57835388 -12.50793457 76.57835388 -12.51757812 72.61108398 C-12.5245874 71.88526123 -12.53159668 71.15943848 -12.53881836 70.41162109 C-12.55636236 68.0227179 -12.54479069 65.63500807 -12.53125 63.24609375 C-12.53394568 61.58130161 -12.53782874 59.916511 -12.54284668 58.25172424 C-12.54873657 54.76735402 -12.54019442 51.28339465 -12.52148438 47.79907227 C-12.49867699 43.33432345 -12.51183184 38.87053551 -12.53577423 34.4058218 C-12.55023107 30.96996321 -12.54562714 27.53433234 -12.53526306 24.09846687 C-12.53259636 22.45223947 -12.53586357 20.80599133 -12.54518127 19.15978813 C-12.55534747 16.85914226 -12.53984813 14.56005157 -12.51757812 12.25952148 C-12.51280457 10.29691628 -12.51280457 10.29691628 -12.50793457 8.29466248 C-11.91807267 4.46858729 -11.02400915 3.32478531 -8 1 C-5.14675563 -0.42662219 -3.16545451 -0.31033868 0 0 Z " fill="#F5E7B3" transform="translate(329,214)"/>
<path d="M0 0 C3.1850357 1.76015131 3.83296972 2.49890916 5 6 C5.1102479 8.34955468 5.15909259 10.70212756 5.17700195 13.05419922 C5.18357315 13.76837006 5.19014435 14.48254089 5.19691467 15.21835327 C5.21661689 17.58046578 5.22830225 19.94251486 5.23828125 22.3046875 C5.24235678 23.11210514 5.2464323 23.91952278 5.25063133 24.75140762 C5.27147717 29.0235595 5.2857863 33.29567938 5.29516602 37.56787109 C5.30623821 41.97866587 5.34065127 46.38895723 5.38033772 50.7995739 C5.40648512 54.19337907 5.41485607 57.5870638 5.41844749 60.98096085 C5.42331694 62.60685762 5.43494119 64.2327489 5.45348549 65.85854721 C5.47784225 68.13510833 5.47691921 70.41036011 5.4699707 72.68701172 C5.47877007 74.62868729 5.47877007 74.62868729 5.48774719 76.60958862 C4.9165154 80.58031528 3.84168878 82.217616 1 85 C-2.77081459 86.31158768 -4.48941725 86.18655908 -8.25 84.8125 C-11.21008139 82.86153727 -11.82427661 82.23558179 -13 79 C-13.26742554 75.78126526 -13.26742554 75.78126526 -13.29052734 71.92407227 C-13.29724457 71.21950897 -13.30396179 70.51494568 -13.31088257 69.78903198 C-13.32984842 67.46475128 -13.33378582 65.14075947 -13.3359375 62.81640625 C-13.34236578 61.1974221 -13.34909416 59.57843911 -13.35610962 57.9594574 C-13.36807836 54.56758938 -13.3717908 51.17582319 -13.37060547 47.78393555 C-13.37040215 43.44150838 -13.39771863 39.09973474 -13.43214989 34.7574625 C-13.45440516 31.4142508 -13.45844346 28.07119682 -13.45738602 24.72791862 C-13.4597435 23.12715334 -13.46857538 21.52638382 -13.48405075 19.9256916 C-13.50368668 17.68510467 -13.4978839 15.44593284 -13.48583984 13.20532227 C-13.48868988 11.93165298 -13.49153992 10.6579837 -13.49447632 9.34571838 C-12.91486866 5.4239856 -11.76320848 3.78633686 -9 1 C-5.94306678 -0.52846661 -3.37015453 -0.23242445 0 0 Z " fill="#F4E7B3" transform="translate(126,214)"/>
<path d="M0 0 C2.8125 1.3125 2.8125 1.3125 5 3 C6.1727648 6.51829441 6.15592648 9.34015141 6.19287109 13.05419922 C6.20104858 13.76837006 6.20922607 14.48254089 6.21765137 15.21835327 C6.24245326 17.58045622 6.25900624 19.94249937 6.2734375 22.3046875 C6.27876118 23.11210514 6.28408485 23.91952278 6.28956985 24.75140762 C6.31627638 29.02355245 6.33566087 33.29566828 6.35009766 37.56787109 C6.36344808 41.10263889 6.3913236 44.63683093 6.43212891 48.17138672 C6.48142176 52.4413283 6.50621402 56.71074687 6.51332474 60.98096085 C6.52003947 62.60688106 6.5352675 64.2327895 6.55921555 65.85854721 C6.59084509 68.13532116 6.59090876 70.41007566 6.58349609 72.68701172 C6.59158295 73.9814621 6.5996698 75.27591248 6.60800171 76.60958862 C5.84315685 80.87460738 4.32890525 82.32066565 1 85 C-2.43256476 86.4082317 -3.67937541 86.11944838 -7.1875 84.8125 C-10.20977969 82.86480864 -10.81521931 82.27562695 -12 79 C-12.26742554 75.78126526 -12.26742554 75.78126526 -12.29052734 71.92407227 C-12.29724457 71.21950897 -12.30396179 70.51494568 -12.31088257 69.78903198 C-12.32984842 67.46475128 -12.33378582 65.14075947 -12.3359375 62.81640625 C-12.34236578 61.1974221 -12.34909416 59.57843911 -12.35610962 57.9594574 C-12.36807836 54.56758938 -12.3717908 51.17582319 -12.37060547 47.78393555 C-12.37040215 43.44150838 -12.39771863 39.09973474 -12.43214989 34.7574625 C-12.45440516 31.4142508 -12.45844346 28.07119682 -12.45738602 24.72791862 C-12.4597435 23.12715334 -12.46857538 21.52638382 -12.48405075 19.9256916 C-12.50368668 17.68510467 -12.4978839 15.44593284 -12.48583984 13.20532227 C-12.48868988 11.93165298 -12.49153992 10.6579837 -12.49447632 9.34571838 C-11.91486866 5.4239856 -10.76320848 3.78633686 -8 1 C-5.17998673 -0.41000664 -3.12992745 -0.24548451 0 0 Z " fill="#F4E7B3" transform="translate(193,214)"/>
<path d="M0 0 C2.7553508 1.99660925 4.67481473 3.58514976 5.4602356 7.00244141 C5.64558877 9.44265452 5.66683618 11.83425831 5.62890625 14.28125 C5.63131821 15.17235474 5.63373016 16.06345947 5.63621521 16.98156738 C5.63523803 18.86096661 5.62187511 20.74039507 5.59692383 22.61962891 C5.56260867 25.4909068 5.57627211 28.35910638 5.59570312 31.23046875 C5.58880438 33.05990889 5.57913173 34.88934111 5.56640625 36.71875 C5.57136612 37.57408325 5.57632599 38.4294165 5.58143616 39.31066895 C5.50183627 43.35358398 5.30608163 45.5022801 3.14428711 49.01757812 C0.36014372 51.59155561 -1.21979303 52 -5 52 C-8.37638381 50.83125176 -10.39822488 50.09168097 -12.15307617 46.90820312 C-13.25483183 43.12494759 -13.30541756 39.49972488 -13.30078125 35.59375 C-13.30506638 34.79142944 -13.3093515 33.98910889 -13.31376648 33.16247559 C-13.3194922 31.47144512 -13.32002303 29.78039003 -13.31567383 28.08935547 C-13.31251025 25.50836094 -13.33600636 22.92850957 -13.36132812 20.34765625 C-13.36360101 18.70052227 -13.36430466 17.05338523 -13.36328125 15.40625 C-13.372491 14.63841187 -13.38170074 13.87057373 -13.39118958 13.07946777 C-13.35212813 8.53760374 -12.84550287 5.58869697 -10 2 C-6.24952518 -0.50031654 -4.44143734 -0.53603554 0 0 Z " fill="#F4E8B3" transform="translate(58,231)"/>
<path d="M0 0 C4.04444865 0.65000068 5.70449524 1.60255379 8.5 4.5625 C9.95683206 8.40876605 9.68007044 12.55953045 9.703125 16.6171875 C9.70882507 17.39635529 9.71452515 18.17552307 9.72039795 18.978302 C9.72982646 20.62403006 9.73637338 22.26977681 9.74023438 23.91552734 C9.74993954 26.42188713 9.78098207 28.92742622 9.8125 31.43359375 C9.81903092 33.03645349 9.82428104 34.63931906 9.828125 36.2421875 C9.8404718 36.98612762 9.8528186 37.73006775 9.86553955 38.49655151 C9.84532024 43.26240531 9.04971209 46.52788342 6.5 50.5625 C3.59213776 52.37009004 1.85711813 52.56978813 -1.5625 52.5 C-5.4326306 51.26485194 -6.37858859 50.02388268 -8.5 46.5625 C-9.08869092 43.46664223 -9.08464077 40.4258066 -9.06640625 37.28125 C-9.07260483 36.39014526 -9.07880341 35.49904053 -9.08518982 34.58093262 C-9.09227675 32.70158986 -9.08913366 30.82218418 -9.07641602 28.94287109 C-9.06254307 26.0714143 -9.09664388 23.20321336 -9.13476562 20.33203125 C-9.13571682 18.50260337 -9.13385795 16.67317142 -9.12890625 14.84375 C-9.14216446 13.98841675 -9.15542267 13.1330835 -9.16908264 12.25183105 C-9.1012214 7.89671499 -8.89945371 6.08664378 -6.17944336 2.51757812 C-3.5 0.5625 -3.5 0.5625 0 0 Z " fill="#F4E7B3" transform="translate(461.5,230.4375)"/>
<path d="M0 0 C3.33761045 2.15090451 4.73470933 3.20412799 6 7 C6.12110727 9.81812956 6.18815045 12.61074696 6.203125 15.4296875 C6.20882507 16.257034 6.21452515 17.08438049 6.22039795 17.9367981 C6.22984023 19.68685632 6.23637887 21.43693227 6.24023438 23.18701172 C6.24993847 25.85806431 6.28096785 28.52834675 6.3125 31.19921875 C6.31903058 32.90103711 6.32428084 34.60286096 6.328125 36.3046875 C6.3404718 37.10067352 6.3528186 37.89665955 6.36553955 38.71676636 C6.34720602 43.30291772 5.96522367 46.27073643 3 50 C0.09053057 51.7299548 -1.6749642 52.00663338 -5.0625 51.9375 C-8.93399545 50.70191634 -9.88059502 49.46473478 -12 46 C-12.57850425 42.89115405 -12.56101011 39.83888701 -12.53125 36.68359375 C-12.5350769 35.79011734 -12.53890381 34.89664093 -12.54284668 33.97608948 C-12.54556192 32.09252797 -12.53822793 30.2089285 -12.52148438 28.32543945 C-12.50004329 25.44331916 -12.52131146 22.56368433 -12.546875 19.68164062 C-12.54423215 17.84895284 -12.53910805 16.0162666 -12.53125 14.18359375 C-12.53934692 13.32309921 -12.54744385 12.46260468 -12.55578613 11.57603455 C-12.46224684 5.6083845 -12.46224684 5.6083845 -10.09179688 2.48852539 C-6.54771828 -0.03344557 -4.36934641 -0.42836729 0 0 Z " fill="#F5E7B2" transform="translate(363,231)"/>
<path d="M0 0 C0.99 0 1.98 0 3 0 C3 0.66 3 1.32 3 2 C2.01 2.33 1.02 2.66 0 3 C0 2.01 0 1.02 0 0 Z " fill="#F75509" transform="translate(125,385)"/>
</svg>
